<svg width="82" height="51" viewBox="0 0 82 51" fill="none" xmlns="http://www.w3.org/2000/svg">
<path d="M65.7537 9.53674e-07C63.14 9.53674e-07 60.7313 1.479 59.6038 3.774L52.3263 18.258C51.6088 19.686 51.25 21.216 51.25 22.797V45.9C51.25 48.705 53.5562 51 56.375 51H76.875C79.6938 51 82 48.705 82 45.9V25.5C82 22.695 79.6938 20.4 76.875 20.4H66.625L71.9038 9.894C74.21 5.355 70.8787 9.53674e-07 65.7537 9.53674e-07ZM14.5037 9.53674e-07C11.89 9.53674e-07 9.48125 1.479 8.35375 3.774L1.07625 18.258C0.358745 19.686 0 21.216 0 22.797V45.9C0 48.705 2.30625 51 5.125 51H25.625C28.4438 51 30.75 48.705 30.75 45.9V25.5C30.75 22.695 28.4438 20.4 25.625 20.4H15.375L20.6537 9.894C22.96 5.355 19.6287 9.53674e-07 14.5037 9.53674e-07Z" fill="#F03131"/>
</svg>
